<svg width="26" height="24" viewBox="0 0 26 24" fill="none" xmlns="http://www.w3.org/2000/svg">
<path d="M0.366667 11.6333C0.122222 11.3667 0 11.05 0 10.6833C0 10.3167 0.122222 10 0.366667 9.73333L4.1 6L2.66667 4.56667L2.26667 4.96667C2 5.23333 1.68333 5.36667 1.31667 5.36667C0.95 5.36667 0.633333 5.23333 0.366667 4.96667C0.122222 4.72222 0 4.41111 0 4.03333C0 3.65556 0.122222 3.34444 0.366667 3.1L3.03333 0.433333C3.3 0.166667 3.61667 0.0333333 3.98333 0.0333333C4.35 0.0333333 4.66667 0.166667 4.93333 0.433333C5.17778 0.677778 5.3 0.988889 5.3 1.36667C5.3 1.74444 5.17778 2.05556 4.93333 2.3L4.53333 2.7L5.96667 4.13333L9.7 0.4C9.96667 0.133333 10.2833 0 10.65 0C11.0167 0 11.3333 0.133333 11.6 0.4C11.8667 0.666667 12 0.983333 12 1.35C12 1.71667 11.8667 2.03333 11.6 2.3L10.7 3.16667L20.5333 13C21.0444 13.5111 21.3 14.1389 21.3 14.8833C21.3 15.6278 21.0444 16.2556 20.5333 16.7667L19.6 17.7333L25.9 24H22.1L17.7 19.6L16.7667 20.5667C16.2556 21.0778 15.6278 21.3333 14.8833 21.3333C14.1389 21.3333 13.5111 21.0778 13 20.5667L3.16667 10.7333L2.26667 11.6333C2 11.8778 1.68333 12 1.31667 12C0.95 12 0.633333 11.8778 0.366667 11.6333ZM5.03333 8.86667L14.8667 18.7L18.6333 14.9L16.6333 12.8667L14.7667 14.7333C14.5 14.9778 14.1833 15.1056 13.8167 15.1167C13.45 15.1278 13.1444 15.0111 12.9 14.7667C12.6333 14.5 12.5 14.1833 12.5 13.8167C12.5 13.45 12.6333 13.1333 12.9 12.8667L14.7667 11L12.7667 9L10.9 10.8667C10.6333 11.1111 10.3167 11.2333 9.95 11.2333C9.58333 11.2333 9.26667 11.1111 9 10.8667C8.75556 10.6 8.63333 10.2833 8.63333 9.91667C8.63333 9.55 8.75556 9.23333 9 8.96667L10.8667 7.1L8.83333 5.06667L5.03333 8.86667ZM5.03333 8.86667L8.83333 5.06667L5.03333 8.86667Z" fill="currentColor"/>
</svg>
